<?xml version="1.0" encoding="utf-8"?>
<!-- Generator: Adobe Illustrator 27.7.0, SVG Export Plug-In . SVG Version: 6.00 Build 0)  -->
<svg version="1.1" id="Layer_1" xmlns="http://www.w3.org/2000/svg" xmlns:xlink="http://www.w3.org/1999/xlink" x="0px" y="0px"
	 viewBox="0 0 608.1 604.3" style="enable-background:new 0 0 608.1 604.3;" xml:space="preserve">
<style type="text/css">
	.st0{fill:none;stroke:#231F20;stroke-width:9;stroke-miterlimit:10;}
	.st1{fill:#231F20;}
	.st2{font-family:'Futura-Medium';}
	.st3{font-size:112.9254px;}
	.st4{letter-spacing:-2;}
	.st5{letter-spacing:2;}
	.st6{fill:#6CBE45;}
	.st7{fill:#00A995;}
	.st8{fill:#00AD4C;}
</style>
<g id="Layer_2_00000093887356511497802290000013285441559742153368_">
	<path class="st0" d="M34.4,281.5C47.2,262.4,197.1,188.3,283,48.4"/>
	<path class="st0" d="M140.7,250.2c11.6-5.5,115.6-64.6,149.9-145.7"/>
	<path class="st0" d="M571.3,281.5c-12.8-19.2-162.7-93.3-248.7-233.1"/>
	<line class="st0" x1="302.8" y1="20.1" x2="302.8" y2="436.5"/>
	<path class="st0" d="M464.9,250.2c-11.6-5.5-115.6-64.6-149.9-145.7"/>
	<text transform="matrix(1 0 0 1 57.2139 552.7117)" class="st1 st2 st3">D</text>
	<text transform="matrix(1 0 0 1 139.2002 552.7117)" class="st1 st2 st3 st4">e</text>
	<text transform="matrix(1 0 0 1 199.7344 552.7117)" class="st1 st2 st3">vB</text>
	<text transform="matrix(1 0 0 1 323.248 552.7117)" class="st1 st2 st3 st5">r</text>
	<text transform="matrix(1 0 0 1 367.1875 552.7117)" class="st1 st2 st3">idge</text>
</g>
<g id="Layer_1_00000054228924928424544450000000468285048038086793_">
	<path class="st6" d="M297.9,147.1h11.3c12.5,0,22.7,10.1,22.7,22.7v230.1c0,12.5-10.1,22.7-22.7,22.7h-11.3
		c-12.5,0-22.7-10.1-22.7-22.7V169.7C275.3,157.2,285.4,147.1,297.9,147.1z"/>
	<path class="st7" d="M169.3,374.5h267.1c25.3,0,45.8,20.5,45.8,45.8v3.2c0,7.2-5.8,13-13,13H136.4c-7.2,0-13-5.8-13-13v-3.2
		C123.5,395,144,374.5,169.3,374.5L169.3,374.5z"/>
	<path class="st6" d="M297.9,9.6h11.3c12.5,0,22.7,10.1,22.7,22.7v181.3c0,12.5-10.1,22.7-22.7,22.7h-11.3
		c-12.5,0-22.7-10.1-22.7-22.7V32.3C275.3,19.7,285.4,9.6,297.9,9.6z"/>
	<path class="st8" d="M302.8,201c0,0,134.1-3.6,278.5,70.6c14,7.2,50.7,85.5-7.6,55.1c-56.2-29.3-163.9-69.8-270.9-69.9
		c-107.6-0.1-214.5,40.4-271,69.9c-58.3,30.4-21.5-48-7.6-55.1C168.8,197.5,302.8,201,302.8,201z"/>
</g>
</svg>
